solid OpenSCAD_Model
  facet normal 0 1 -0
    outer loop
      vertex 12 7 -24
      vertex -12 7 -14
      vertex 12 7 -14
    endloop
  endfacet
  facet normal 0 1 0
    outer loop
      vertex -12 7 -14
      vertex 12 7 -24
      vertex -12 7 -24
    endloop
  endfacet
  facet normal 0 0 1
    outer loop
      vertex -6 -4.5 -14
      vertex -12 -4.5 -14
      vertex -6 -5 -14
    endloop
  endfacet
  facet normal 0 0 1
    outer loop
      vertex 6 -5 -14
      vertex 12 -4.5 -14
      vertex 6 -4.5 -14
    endloop
  endfacet
  facet normal 0 0 1
    outer loop
      vertex 12 -4.5 -14
      vertex 6 -5 -14
      vertex 12 -7 -14
    endloop
  endfacet
  facet normal -0 0 1
    outer loop
      vertex -6 -5 -14
      vertex 12 -7 -14
      vertex 6 -5 -14
    endloop
  endfacet
  facet normal 0 0 1
    outer loop
      vertex -12 -7 -14
      vertex -6 -5 -14
      vertex -12 -4.5 -14
    endloop
  endfacet
  facet normal 0 0 1
    outer loop
      vertex -6 -5 -14
      vertex -12 -7 -14
      vertex 12 -7 -14
    endloop
  endfacet
  facet normal 0 0 1
    outer loop
      vertex 12 7 -14
      vertex 6 5 -14
      vertex 12 4.5 -14
    endloop
  endfacet
  facet normal 0 0 1
    outer loop
      vertex 12 7 -14
      vertex -6 5 -14
      vertex 6 5 -14
    endloop
  endfacet
  facet normal -0 0 1
    outer loop
      vertex -12 7 -14
      vertex -6 5 -14
      vertex 12 7 -14
    endloop
  endfacet
  facet normal 0 0 1
    outer loop
      vertex -12 4.5 -14
      vertex -6 5 -14
      vertex -12 7 -14
    endloop
  endfacet
  facet normal 0 0 1
    outer loop
      vertex -6 5 -14
      vertex -12 4.5 -14
      vertex -6 4.5 -14
    endloop
  endfacet
  facet normal 0 0 1
    outer loop
      vertex 12 4.5 -14
      vertex 6 5 -14
      vertex 6 4.5 -14
    endloop
  endfacet
  facet normal 0 0 -1
    outer loop
      vertex 12 -7 -24
      vertex 9.5 -4.5 -24
      vertex 12 -4.5 -24
    endloop
  endfacet
  facet normal 0 0 -1
    outer loop
      vertex 9.5 -4.5 -24
      vertex -9.5 -4.5 -24
      vertex 9.5 4.5 -24
    endloop
  endfacet
  facet normal 0 0 -1
    outer loop
      vertex 12 -7 -24
      vertex -9.5 -4.5 -24
      vertex 9.5 -4.5 -24
    endloop
  endfacet
  facet normal 0 0 -1
    outer loop
      vertex -12 -7 -24
      vertex -9.5 -4.5 -24
      vertex 12 -7 -24
    endloop
  endfacet
  facet normal -0 0 -1
    outer loop
      vertex -9.5 -4.5 -24
      vertex -12 -7 -24
      vertex -12 -4.5 -24
    endloop
  endfacet
  facet normal 0 0 -1
    outer loop
      vertex 9.5 4.5 -24
      vertex 12 7 -24
      vertex 12 4.5 -24
    endloop
  endfacet
  facet normal 0 0 -1
    outer loop
      vertex -9.5 4.5 -24
      vertex 9.5 4.5 -24
      vertex -9.5 -4.5 -24
    endloop
  endfacet
  facet normal 0 0 -1
    outer loop
      vertex 9.5 4.5 -24
      vertex -9.5 4.5 -24
      vertex 12 7 -24
    endloop
  endfacet
  facet normal 0 0 -1
    outer loop
      vertex -12 7 -24
      vertex -9.5 4.5 -24
      vertex -12 4.5 -24
    endloop
  endfacet
  facet normal 0 0 -1
    outer loop
      vertex -9.5 4.5 -24
      vertex -12 7 -24
      vertex 12 7 -24
    endloop
  endfacet
  facet normal 0 -1 0
    outer loop
      vertex -12 -7 -24
      vertex 12 -7 -14
      vertex -12 -7 -14
    endloop
  endfacet
  facet normal 0 -1 -0
    outer loop
      vertex 12 -7 -14
      vertex -12 -7 -24
      vertex 12 -7 -24
    endloop
  endfacet
  facet normal -1 0 0
    outer loop
      vertex -12 -7 -24
      vertex -12 -4.5 -14
      vertex -12 -4.5 -24
    endloop
  endfacet
  facet normal -1 -0 0
    outer loop
      vertex -12 -4.5 -14
      vertex -12 -7 -24
      vertex -12 -7 -14
    endloop
  endfacet
  facet normal -1 0 0
    outer loop
      vertex -12 4.5 -24
      vertex -12 7 -14
      vertex -12 7 -24
    endloop
  endfacet
  facet normal -1 -0 0
    outer loop
      vertex -12 7 -14
      vertex -12 4.5 -24
      vertex -12 4.5 -14
    endloop
  endfacet
  facet normal 0 -1 0
    outer loop
      vertex -12 4.5 -14
      vertex -9.5 4.5 -19.5
      vertex -6 4.5 -14
    endloop
  endfacet
  facet normal 0 -1 0
    outer loop
      vertex -12 4.5 -24
      vertex -9.5 4.5 -19.5
      vertex -12 4.5 -14
    endloop
  endfacet
  facet normal 0 -1 -0
    outer loop
      vertex -9.5 4.5 -19.5
      vertex -12 4.5 -24
      vertex -9.5 4.5 -24
    endloop
  endfacet
  facet normal 0 -1 -0
    outer loop
      vertex -6 4.5 -14
      vertex -9.5 4.5 -19.5
      vertex -6 4.5 -19.5
    endloop
  endfacet
  facet normal 0 1 0
    outer loop
      vertex -9.5 -4.5 -19.5
      vertex -6 -4.5 -14
      vertex -6 -4.5 -19.5
    endloop
  endfacet
  facet normal 0 1 0
    outer loop
      vertex -6 -4.5 -14
      vertex -9.5 -4.5 -19.5
      vertex -12 -4.5 -14
    endloop
  endfacet
  facet normal 0 1 0
    outer loop
      vertex -12 -4.5 -24
      vertex -9.5 -4.5 -19.5
      vertex -9.5 -4.5 -24
    endloop
  endfacet
  facet normal 0 1 0
    outer loop
      vertex -9.5 -4.5 -19.5
      vertex -12 -4.5 -24
      vertex -12 -4.5 -14
    endloop
  endfacet
  facet normal -1 0 0
    outer loop
      vertex -9.5 -4.5 -24
      vertex -9.5 4.5 -19.5
      vertex -9.5 4.5 -24
    endloop
  endfacet
  facet normal -1 -0 0
    outer loop
      vertex -9.5 4.5 -19.5
      vertex -9.5 -4.5 -24
      vertex -9.5 -4.5 -19.5
    endloop
  endfacet
  facet normal -0 0 1
    outer loop
      vertex -9.5 4.5 -19.5
      vertex -6 -4.5 -19.5
      vertex -6 4.5 -19.5
    endloop
  endfacet
  facet normal 0 0 1
    outer loop
      vertex -6 -4.5 -19.5
      vertex -9.5 4.5 -19.5
      vertex -9.5 -4.5 -19.5
    endloop
  endfacet
  facet normal -1 0 0
    outer loop
      vertex -6 -4.5 -19.5
      vertex -6 4.5 -14
      vertex -6 4.5 -19.5
    endloop
  endfacet
  facet normal -1 -0 0
    outer loop
      vertex -6 4.5 -14
      vertex -6 -4.5 -19.5
      vertex -6 -4.5 -14
    endloop
  endfacet
  facet normal 1 -0 0
    outer loop
      vertex 12 -7 -14
      vertex 12 -4.5 -24
      vertex 12 -4.5 -14
    endloop
  endfacet
  facet normal 1 0 0
    outer loop
      vertex 12 -4.5 -24
      vertex 12 -7 -14
      vertex 12 -7 -24
    endloop
  endfacet
  facet normal 1 -0 0
    outer loop
      vertex 12 4.5 -14
      vertex 12 7 -24
      vertex 12 7 -14
    endloop
  endfacet
  facet normal 1 0 0
    outer loop
      vertex 12 7 -24
      vertex 12 4.5 -14
      vertex 12 4.5 -24
    endloop
  endfacet
  facet normal 0 -1 0
    outer loop
      vertex 9.5 4.5 -19.5
      vertex 6 4.5 -14
      vertex 6 4.5 -19.5
    endloop
  endfacet
  facet normal 0 -1 0
    outer loop
      vertex 6 4.5 -14
      vertex 9.5 4.5 -19.5
      vertex 12 4.5 -14
    endloop
  endfacet
  facet normal 0 -1 0
    outer loop
      vertex 12 4.5 -24
      vertex 9.5 4.5 -19.5
      vertex 9.5 4.5 -24
    endloop
  endfacet
  facet normal 0 -1 0
    outer loop
      vertex 9.5 4.5 -19.5
      vertex 12 4.5 -24
      vertex 12 4.5 -14
    endloop
  endfacet
  facet normal 0 1 0
    outer loop
      vertex 12 -4.5 -14
      vertex 9.5 -4.5 -19.5
      vertex 6 -4.5 -14
    endloop
  endfacet
  facet normal 0 1 -0
    outer loop
      vertex 12 -4.5 -24
      vertex 9.5 -4.5 -19.5
      vertex 12 -4.5 -14
    endloop
  endfacet
  facet normal 0 1 0
    outer loop
      vertex 9.5 -4.5 -19.5
      vertex 12 -4.5 -24
      vertex 9.5 -4.5 -24
    endloop
  endfacet
  facet normal 0 1 0
    outer loop
      vertex 6 -4.5 -14
      vertex 9.5 -4.5 -19.5
      vertex 6 -4.5 -19.5
    endloop
  endfacet
  facet normal 1 -0 0
    outer loop
      vertex 9.5 -4.5 -19.5
      vertex 9.5 4.5 -24
      vertex 9.5 4.5 -19.5
    endloop
  endfacet
  facet normal 1 0 0
    outer loop
      vertex 9.5 4.5 -24
      vertex 9.5 -4.5 -19.5
      vertex 9.5 -4.5 -24
    endloop
  endfacet
  facet normal -0 0 1
    outer loop
      vertex 6 4.5 -19.5
      vertex 9.5 -4.5 -19.5
      vertex 9.5 4.5 -19.5
    endloop
  endfacet
  facet normal 0 0 1
    outer loop
      vertex 9.5 -4.5 -19.5
      vertex 6 4.5 -19.5
      vertex 6 -4.5 -19.5
    endloop
  endfacet
  facet normal 1 -0 0
    outer loop
      vertex 6 -4.5 -14
      vertex 6 4.5 -19.5
      vertex 6 4.5 -14
    endloop
  endfacet
  facet normal 1 0 0
    outer loop
      vertex 6 4.5 -19.5
      vertex 6 -4.5 -14
      vertex 6 -4.5 -19.5
    endloop
  endfacet
  facet normal 0 0 -1
    outer loop
      vertex 16.5 -4 10.5
      vertex 18.5 4 10.5
      vertex 18.5 -4 10.5
    endloop
  endfacet
  facet normal -0 0 -1
    outer loop
      vertex 18.5 4 10.5
      vertex 16.5 -4 10.5
      vertex 16.5 4 10.5
    endloop
  endfacet
  facet normal -0.980581 0 0.196116
    outer loop
      vertex 16.8 -4 2
      vertex 18.5 4 10.5
      vertex 16.8 4 2
    endloop
  endfacet
  facet normal -0.980581 0 0.196116
    outer loop
      vertex 18.5 4 10.5
      vertex 16.8 -4 2
      vertex 18.5 -4 10.5
    endloop
  endfacet
  facet normal 0 1 -0
    outer loop
      vertex 16.8 -4 2
      vertex 16.5 -4 10.5
      vertex 18.5 -4 10.5
    endloop
  endfacet
  facet normal 0 1 0
    outer loop
      vertex 16.5 -4 10.5
      vertex 16.8 -4 2
      vertex 16.5 -4 2
    endloop
  endfacet
  facet normal 0 -1 0
    outer loop
      vertex 16.8 4 2
      vertex 16.5 4 10.5
      vertex 16.5 4 2
    endloop
  endfacet
  facet normal 0 -1 0
    outer loop
      vertex 16.5 4 10.5
      vertex 16.8 4 2
      vertex 18.5 4 10.5
    endloop
  endfacet
  facet normal 1 -0 0
    outer loop
      vertex 20 -5 11.5
      vertex 20 5 -10
      vertex 20 5 11.5
    endloop
  endfacet
  facet normal 1 0 0
    outer loop
      vertex 20 5 -10
      vertex 20 -5 11.5
      vertex 20 -5 -10
    endloop
  endfacet
  facet normal -0 0 1
    outer loop
      vertex 16.5 5 11.5
      vertex 20 -5 11.5
      vertex 20 5 11.5
    endloop
  endfacet
  facet normal 0 0 1
    outer loop
      vertex 20 -5 11.5
      vertex 16.5 5 11.5
      vertex 16.5 -5 11.5
    endloop
  endfacet
  facet normal -0 0 1
    outer loop
      vertex 16.5 4 2
      vertex 16.8 -4 2
      vertex 16.8 4 2
    endloop
  endfacet
  facet normal 0 0 1
    outer loop
      vertex 16.8 -4 2
      vertex 16.5 4 2
      vertex 16.5 -4 2
    endloop
  endfacet
  facet normal -1 0 0
    outer loop
      vertex 16.5 5 -7
      vertex 16.5 4 2
      vertex 16.5 5 11.5
    endloop
  endfacet
  facet normal -1 0 0
    outer loop
      vertex 16.5 5 -7
      vertex 16.5 -4 2
      vertex 16.5 4 2
    endloop
  endfacet
  facet normal -1 0 0
    outer loop
      vertex 16.5 -5 11.5
      vertex 16.5 -4 2
      vertex 16.5 -5 -7
    endloop
  endfacet
  facet normal -1 0 0
    outer loop
      vertex 16.5 -5 -7
      vertex 16.5 -4 2
      vertex 16.5 5 -7
    endloop
  endfacet
  facet normal -1 0 0
    outer loop
      vertex 16.5 4 10.5
      vertex 16.5 5 11.5
      vertex 16.5 4 2
    endloop
  endfacet
  facet normal -1 0 0
    outer loop
      vertex 16.5 -4 10.5
      vertex 16.5 5 11.5
      vertex 16.5 4 10.5
    endloop
  endfacet
  facet normal -1 0 0
    outer loop
      vertex 16.5 -4 10.5
      vertex 16.5 -5 11.5
      vertex 16.5 5 11.5
    endloop
  endfacet
  facet normal -1 0 0
    outer loop
      vertex 16.5 -4 2
      vertex 16.5 -5 11.5
      vertex 16.5 -4 10.5
    endloop
  endfacet
  facet normal 0 1 0
    outer loop
      vertex 20 5 11.5
      vertex 16.5 5 -7
      vertex 16.5 5 11.5
    endloop
  endfacet
  facet normal 0 1 0
    outer loop
      vertex 6 5 -10
      vertex 16.5 5 -7
      vertex 20 5 -10
    endloop
  endfacet
  facet normal 0 1 -0
    outer loop
      vertex 20 5 -10
      vertex 16.5 5 -7
      vertex 20 5 11.5
    endloop
  endfacet
  facet normal 0 1 -0
    outer loop
      vertex -16.5 5 -7
      vertex -20 5 11.5
      vertex -16.5 5 11.5
    endloop
  endfacet
  facet normal 0 1 0
    outer loop
      vertex 16.5 5 -7
      vertex 6 5 -10
      vertex -16.5 5 -7
    endloop
  endfacet
  facet normal 0 1 -0
    outer loop
      vertex -6 5 -10
      vertex -16.5 5 -7
      vertex 6 5 -10
    endloop
  endfacet
  facet normal 0 1 0
    outer loop
      vertex -16.5 5 -7
      vertex -20 5 -10
      vertex -20 5 11.5
    endloop
  endfacet
  facet normal 0 1 0
    outer loop
      vertex -20 5 -10
      vertex -16.5 5 -7
      vertex -6 5 -10
    endloop
  endfacet
  facet normal 0 1 -0
    outer loop
      vertex 6 5 -14
      vertex -6 5 -10
      vertex 6 5 -10
    endloop
  endfacet
  facet normal 0 1 0
    outer loop
      vertex -6 5 -10
      vertex 6 5 -14
      vertex -6 5 -14
    endloop
  endfacet
  facet normal 0 -1 0
    outer loop
      vertex -20 -5 11.5
      vertex -16.5 -5 -7
      vertex -16.5 -5 11.5
    endloop
  endfacet
  facet normal 0 -1 0
    outer loop
      vertex -6 -5 -10
      vertex -16.5 -5 -7
      vertex -20 -5 -10
    endloop
  endfacet
  facet normal 0 -1 0
    outer loop
      vertex -20 -5 -10
      vertex -16.5 -5 -7
      vertex -20 -5 11.5
    endloop
  endfacet
  facet normal 0 -1 0
    outer loop
      vertex 16.5 -5 -7
      vertex 20 -5 11.5
      vertex 16.5 -5 11.5
    endloop
  endfacet
  facet normal 0 -1 0
    outer loop
      vertex -16.5 -5 -7
      vertex -6 -5 -10
      vertex 16.5 -5 -7
    endloop
  endfacet
  facet normal 0 -1 0
    outer loop
      vertex 6 -5 -10
      vertex 16.5 -5 -7
      vertex -6 -5 -10
    endloop
  endfacet
  facet normal 0 -1 0
    outer loop
      vertex 16.5 -5 -7
      vertex 20 -5 -10
      vertex 20 -5 11.5
    endloop
  endfacet
  facet normal 0 -1 0
    outer loop
      vertex 20 -5 -10
      vertex 16.5 -5 -7
      vertex 6 -5 -10
    endloop
  endfacet
  facet normal 0 -1 0
    outer loop
      vertex -6 -5 -14
      vertex 6 -5 -10
      vertex -6 -5 -10
    endloop
  endfacet
  facet normal 0 -1 -0
    outer loop
      vertex 6 -5 -10
      vertex -6 -5 -14
      vertex 6 -5 -14
    endloop
  endfacet
  facet normal 0 0 -1
    outer loop
      vertex -18.5 -4 10.5
      vertex -16.5 4 10.5
      vertex -16.5 -4 10.5
    endloop
  endfacet
  facet normal -0 0 -1
    outer loop
      vertex -16.5 4 10.5
      vertex -18.5 -4 10.5
      vertex -18.5 4 10.5
    endloop
  endfacet
  facet normal 0.980581 -0 0.196116
    outer loop
      vertex -18.5 -4 10.5
      vertex -16.8 4 2
      vertex -18.5 4 10.5
    endloop
  endfacet
  facet normal 0.980581 0 0.196116
    outer loop
      vertex -16.8 4 2
      vertex -18.5 -4 10.5
      vertex -16.8 -4 2
    endloop
  endfacet
  facet normal 0 1 0
    outer loop
      vertex -16.8 -4 2
      vertex -16.5 -4 10.5
      vertex -16.5 -4 2
    endloop
  endfacet
  facet normal 0 1 0
    outer loop
      vertex -16.5 -4 10.5
      vertex -16.8 -4 2
      vertex -18.5 -4 10.5
    endloop
  endfacet
  facet normal 0 -1 0
    outer loop
      vertex -16.8 4 2
      vertex -16.5 4 10.5
      vertex -18.5 4 10.5
    endloop
  endfacet
  facet normal 0 -1 -0
    outer loop
      vertex -16.5 4 10.5
      vertex -16.8 4 2
      vertex -16.5 4 2
    endloop
  endfacet
  facet normal -1 0 0
    outer loop
      vertex -20 -5 -10
      vertex -20 5 11.5
      vertex -20 5 -10
    endloop
  endfacet
  facet normal -1 -0 0
    outer loop
      vertex -20 5 11.5
      vertex -20 -5 -10
      vertex -20 -5 11.5
    endloop
  endfacet
  facet normal -0 0 1
    outer loop
      vertex -20 5 11.5
      vertex -16.5 -5 11.5
      vertex -16.5 5 11.5
    endloop
  endfacet
  facet normal 0 0 1
    outer loop
      vertex -16.5 -5 11.5
      vertex -20 5 11.5
      vertex -20 -5 11.5
    endloop
  endfacet
  facet normal -0 0 1
    outer loop
      vertex -16.8 4 2
      vertex -16.5 -4 2
      vertex -16.5 4 2
    endloop
  endfacet
  facet normal 0 0 1
    outer loop
      vertex -16.5 -4 2
      vertex -16.8 4 2
      vertex -16.8 -4 2
    endloop
  endfacet
  facet normal 1 0 0
    outer loop
      vertex -16.5 4 2
      vertex -16.5 5 11.5
      vertex -16.5 4 10.5
    endloop
  endfacet
  facet normal 1 0 0
    outer loop
      vertex -16.5 5 11.5
      vertex -16.5 -4 10.5
      vertex -16.5 4 10.5
    endloop
  endfacet
  facet normal 1 0 0
    outer loop
      vertex -16.5 -4 10.5
      vertex -16.5 -5 11.5
      vertex -16.5 -4 2
    endloop
  endfacet
  facet normal 1 -0 0
    outer loop
      vertex -16.5 -5 11.5
      vertex -16.5 -4 10.5
      vertex -16.5 5 11.5
    endloop
  endfacet
  facet normal 1 0 0
    outer loop
      vertex -16.5 5 11.5
      vertex -16.5 4 2
      vertex -16.5 5 -7
    endloop
  endfacet
  facet normal 1 -0 0
    outer loop
      vertex -16.5 -4 2
      vertex -16.5 5 -7
      vertex -16.5 4 2
    endloop
  endfacet
  facet normal 1 0 0
    outer loop
      vertex -16.5 -4 2
      vertex -16.5 -5 -7
      vertex -16.5 5 -7
    endloop
  endfacet
  facet normal 1 0 0
    outer loop
      vertex -16.5 -5 -7
      vertex -16.5 -4 2
      vertex -16.5 -5 11.5
    endloop
  endfacet
  facet normal -0 0 1
    outer loop
      vertex -16.5 5 -7
      vertex 16.5 -5 -7
      vertex 16.5 5 -7
    endloop
  endfacet
  facet normal 0 0 1
    outer loop
      vertex 16.5 -5 -7
      vertex -16.5 5 -7
      vertex -16.5 -5 -7
    endloop
  endfacet
  facet normal 0 0 -1
    outer loop
      vertex 6 -5 -10
      vertex 20 5 -10
      vertex 20 -5 -10
    endloop
  endfacet
  facet normal -0 0 -1
    outer loop
      vertex 20 5 -10
      vertex 6 -5 -10
      vertex 6 5 -10
    endloop
  endfacet
  facet normal 1 0 0
    outer loop
      vertex 6 5 -10
      vertex 6 4.5 -14
      vertex 6 5 -14
    endloop
  endfacet
  facet normal 1 0 0
    outer loop
      vertex 6 5 -10
      vertex 6 -4.5 -14
      vertex 6 4.5 -14
    endloop
  endfacet
  facet normal 1 -0 0
    outer loop
      vertex 6 -5 -10
      vertex 6 -4.5 -14
      vertex 6 5 -10
    endloop
  endfacet
  facet normal 1 0 0
    outer loop
      vertex 6 -4.5 -14
      vertex 6 -5 -10
      vertex 6 -5 -14
    endloop
  endfacet
  facet normal 0 0 -1
    outer loop
      vertex -20 -5 -10
      vertex -6 5 -10
      vertex -6 -5 -10
    endloop
  endfacet
  facet normal -0 0 -1
    outer loop
      vertex -6 5 -10
      vertex -20 -5 -10
      vertex -20 5 -10
    endloop
  endfacet
  facet normal -1 0 0
    outer loop
      vertex -6 4.5 -14
      vertex -6 5 -10
      vertex -6 5 -14
    endloop
  endfacet
  facet normal -1 0 0
    outer loop
      vertex -6 -4.5 -14
      vertex -6 5 -10
      vertex -6 4.5 -14
    endloop
  endfacet
  facet normal -1 0 0
    outer loop
      vertex -6 -5 -10
      vertex -6 -4.5 -14
      vertex -6 -5 -14
    endloop
  endfacet
  facet normal -1 0 0
    outer loop
      vertex -6 -4.5 -14
      vertex -6 -5 -10
      vertex -6 5 -10
    endloop
  endfacet
endsolid OpenSCAD_Model
